<svg xmlns="http://www.w3.org/2000/svg" viewBox="0 0 24 24"><defs><style>.cls-1{fill:#ccc;}</style></defs><g id="레이어_2" data-name="레이어 2"><g id="레이어_2-2" data-name="레이어 2"><path class="cls-1" d="M23.43,10.47,21,10a9.24,9.24,0,0,0-1.2-2.87L21.16,5a.7.7,0,0,0-.09-.89L19.9,2.93A.7.7,0,0,0,19,2.84L16.89,4.25A9.24,9.24,0,0,0,14,3.05L13.53.57a.72.72,0,0,0-.7-.57H11.17a.72.72,0,0,0-.7.57L10,3.05a9.24,9.24,0,0,0-2.87,1.2L5,2.84a.7.7,0,0,0-.89.09L2.93,4.1A.7.7,0,0,0,2.84,5L4.25,7.11A9.24,9.24,0,0,0,3.05,10l-2.48.49a.72.72,0,0,0-.57.7v1.66a.72.72,0,0,0,.57.7L3.05,14a9.24,9.24,0,0,0,1.2,2.87L2.84,19a.7.7,0,0,0,.09.89L4.1,21.07a.7.7,0,0,0,.89.09l2.12-1.41A9.24,9.24,0,0,0,10,21l.49,2.48a.72.72,0,0,0,.7.57h1.66a.72.72,0,0,0,.7-.57L14,21a9.24,9.24,0,0,0,2.87-1.2L19,21.16a.7.7,0,0,0,.89-.09l1.17-1.17a.7.7,0,0,0,.09-.89l-1.41-2.12A9.24,9.24,0,0,0,21,14l2.48-.49a.72.72,0,0,0,.57-.7V11.17A.72.72,0,0,0,23.43,10.47ZM12,16.24A4.24,4.24,0,1,1,16.24,12,4.24,4.24,0,0,1,12,16.24Z"/></g></g></svg>